<svg xmlns="http://www.w3.org/2000/svg" viewBox="0 0 100 100" fill="none">
  <!-- Outer Circle -->
  <circle cx="50" cy="50" r="48" stroke="#1E90FF" stroke-width="4"/>

  <!-- Stream Wave -->
  <path d="M30 50c10-10 30-10 40 0s10 30 0 40" stroke="#1E90FF" stroke-width="4" fill="none"/>

  <!-- Letter S integrated in the wave -->
  <path d="M50 25c-15 0-15 15-15 15s0 15 15 15c15 0 15 15 15 15s0 15-15 15" stroke="#1E90FF" stroke-width="4" fill="none"/>

  <!-- Background Fill for Better Contrast -->
  <circle cx="50" cy="50" r="45" fill="#FFFFFF"/>

  <!-- Re-drawing elements on top of background -->
  <circle cx="50" cy="50" r="48" stroke="#1E90FF" stroke-width="4"/>
  <path d="M30 50c10-10 30-10 40 0s10 30 0 40" stroke="#1E90FF" stroke-width="4" fill="none"/>
  <path d="M50 25c-15 0-15 15-15 15s0 15 15 15c15 0 15 15 15 15s0 15-15 15" stroke="#1E90FF" stroke-width="4" fill="none"/>
</svg>